<svg width="60" height="60" viewBox="0 0 60 60" fill="none" xmlns="http://www.w3.org/2000/svg">
<circle opacity="0.3" cx="30" cy="30" r="29.5" stroke="#282B22"/>
<path d="M30.512 30.968C30.512 32.376 30.24 33.632 29.696 34.736C29.168 35.824 28.44 36.68 27.512 37.304C26.584 37.928 25.536 38.24 24.368 38.24C23.184 38.24 22.128 37.928 21.2 37.304C20.288 36.68 19.56 35.824 19.016 34.736C18.488 33.632 18.224 32.376 18.224 30.968C18.224 29.56 18.488 28.312 19.016 27.224C19.56 26.12 20.288 25.256 21.2 24.632C22.128 23.992 23.184 23.672 24.368 23.672C25.536 23.672 26.584 23.992 27.512 24.632C28.44 25.256 29.168 26.12 29.696 27.224C30.24 28.312 30.512 29.56 30.512 30.968ZM27.824 30.968C27.824 30.008 27.672 29.168 27.368 28.448C27.08 27.712 26.672 27.144 26.144 26.744C25.632 26.328 25.04 26.12 24.368 26.12C23.68 26.12 23.072 26.328 22.544 26.744C22.016 27.144 21.6 27.712 21.296 28.448C21.008 29.168 20.864 30.008 20.864 30.968C20.864 32.408 21.184 33.576 21.824 34.472C22.48 35.352 23.328 35.792 24.368 35.792C25.04 35.792 25.632 35.592 26.144 35.192C26.672 34.792 27.08 34.232 27.368 33.512C27.672 32.776 27.824 31.928 27.824 30.968ZM42.4702 35.624V38H33.3022V35.624H36.7102V27.248C36.5342 27.488 36.2142 27.752 35.7502 28.04C35.2862 28.328 34.7822 28.568 34.2382 28.76C33.7102 28.952 33.2382 29.048 32.8222 29.048V26.576C33.1422 26.576 33.5102 26.48 33.9262 26.288C34.3422 26.096 34.7502 25.872 35.1502 25.616C35.5662 25.344 35.9182 25.088 36.2062 24.848C36.4942 24.592 36.6622 24.408 36.7102 24.296H39.4222V35.624H42.4702Z" fill="#3D4A39"/>
</svg>
