<svg width="60" height="60" viewBox="0 0 60 60" fill="none" xmlns="http://www.w3.org/2000/svg">
<circle opacity="0.3" cx="30" cy="30" r="29.5" stroke="#282B22"/>
<path d="M30.512 30.968C30.512 32.376 30.24 33.632 29.696 34.736C29.168 35.824 28.44 36.68 27.512 37.304C26.584 37.928 25.536 38.24 24.368 38.24C23.184 38.24 22.128 37.928 21.2 37.304C20.288 36.68 19.56 35.824 19.016 34.736C18.488 33.632 18.224 32.376 18.224 30.968C18.224 29.56 18.488 28.312 19.016 27.224C19.56 26.12 20.288 25.256 21.2 24.632C22.128 23.992 23.184 23.672 24.368 23.672C25.536 23.672 26.584 23.992 27.512 24.632C28.44 25.256 29.168 26.12 29.696 27.224C30.24 28.312 30.512 29.56 30.512 30.968ZM27.824 30.968C27.824 30.008 27.672 29.168 27.368 28.448C27.08 27.712 26.672 27.144 26.144 26.744C25.632 26.328 25.04 26.12 24.368 26.12C23.68 26.12 23.072 26.328 22.544 26.744C22.016 27.144 21.6 27.712 21.296 28.448C21.008 29.168 20.864 30.008 20.864 30.968C20.864 32.408 21.184 33.576 21.824 34.472C22.48 35.352 23.328 35.792 24.368 35.792C25.04 35.792 25.632 35.592 26.144 35.192C26.672 34.792 27.08 34.232 27.368 33.512C27.672 32.776 27.824 31.928 27.824 30.968ZM32.7022 38C32.7022 37.104 32.8062 36.296 33.0142 35.576C33.2382 34.84 33.6222 34.168 34.1662 33.56C34.7262 32.936 35.5262 32.336 36.5662 31.76C37.3022 31.344 37.9822 30.976 38.6062 30.656C39.2462 30.32 39.7502 29.976 40.1182 29.624C40.5022 29.272 40.6942 28.856 40.6942 28.376C40.6942 27.864 40.4702 27.408 40.0222 27.008C39.5902 26.592 38.9662 26.384 38.1502 26.384C37.2862 26.384 36.5582 26.592 35.9662 27.008C35.3742 27.408 34.9022 27.816 34.5502 28.232L32.8942 26.336C33.1182 26.096 33.4942 25.8 34.0222 25.448C34.5502 25.08 35.1982 24.76 35.9662 24.488C36.7502 24.2 37.6302 24.056 38.6062 24.056C40.1422 24.056 41.3502 24.432 42.2302 25.184C43.1102 25.936 43.5502 26.88 43.5502 28.016C43.5502 28.8 43.3502 29.472 42.9502 30.032C42.5502 30.576 42.0702 31.032 41.5102 31.4C40.9662 31.768 40.4622 32.072 39.9982 32.312C39.1662 32.728 38.4782 33.096 37.9342 33.416C37.4062 33.736 36.9822 34.064 36.6622 34.4C36.3422 34.736 36.0862 35.144 35.8942 35.624H43.8142V38H32.7022Z" fill="#3D4A39"/>
</svg>
