<svg width="60" height="60" viewBox="0 0 60 60" fill="none" xmlns="http://www.w3.org/2000/svg">
<circle opacity="0.3" cx="30" cy="30" r="29.5" stroke="#282B22"/>
<path d="M29.512 28.968C29.512 30.376 29.24 31.632 28.696 32.736C28.168 33.824 27.44 34.68 26.512 35.304C25.584 35.928 24.536 36.24 23.368 36.24C22.184 36.24 21.128 35.928 20.2 35.304C19.288 34.68 18.56 33.824 18.016 32.736C17.488 31.632 17.224 30.376 17.224 28.968C17.224 27.56 17.488 26.312 18.016 25.224C18.56 24.12 19.288 23.256 20.2 22.632C21.128 21.992 22.184 21.672 23.368 21.672C24.536 21.672 25.584 21.992 26.512 22.632C27.44 23.256 28.168 24.12 28.696 25.224C29.24 26.312 29.512 27.56 29.512 28.968ZM26.824 28.968C26.824 28.008 26.672 27.168 26.368 26.448C26.08 25.712 25.672 25.144 25.144 24.744C24.632 24.328 24.04 24.12 23.368 24.12C22.68 24.12 22.072 24.328 21.544 24.744C21.016 25.144 20.6 25.712 20.296 26.448C20.008 27.168 19.864 28.008 19.864 28.968C19.864 30.408 20.184 31.576 20.824 32.472C21.48 33.352 22.328 33.792 23.368 33.792C24.04 33.792 24.632 33.592 25.144 33.192C25.672 32.792 26.08 32.232 26.368 31.512C26.672 30.776 26.824 29.928 26.824 28.968ZM39.5982 30.336C40.6062 30.512 41.4142 30.992 42.0222 31.776C42.6302 32.544 42.9342 33.488 42.9342 34.608C42.9342 35.6 42.6862 36.464 42.1902 37.2C41.6942 37.936 40.9982 38.504 40.1022 38.904C39.2222 39.32 38.1742 39.528 36.9582 39.528C35.7422 39.528 34.6702 39.312 33.7422 38.88C32.8142 38.464 32.0702 37.856 31.5102 37.056L33.1182 35.232C33.5022 35.824 33.9982 36.288 34.6062 36.624C35.2142 36.96 35.9822 37.128 36.9102 37.128C37.9502 37.128 38.7582 36.904 39.3342 36.456C39.9102 36.008 40.1982 35.336 40.1982 34.44C40.1982 33.512 39.8782 32.784 39.2382 32.256C38.5982 31.728 37.6542 31.464 36.4062 31.464H35.7582V29.4H36.4782C37.5502 29.4 38.3742 29.152 38.9502 28.656C39.5262 28.144 39.8142 27.504 39.8142 26.736C39.8142 25.984 39.5502 25.424 39.0222 25.056C38.5102 24.688 37.8542 24.504 37.0542 24.504C36.2382 24.504 35.5182 24.68 34.8942 25.032C34.2702 25.384 33.7742 25.888 33.4062 26.544L31.7502 24.744C32.2142 23.976 32.9502 23.36 33.9582 22.896C34.9822 22.416 36.1022 22.176 37.3182 22.176C38.3742 22.176 39.2942 22.352 40.0782 22.704C40.8782 23.056 41.5022 23.552 41.9502 24.192C42.3982 24.832 42.6222 25.584 42.6222 26.448C42.6222 27.392 42.3502 28.24 41.8062 28.992C41.2622 29.728 40.5262 30.176 39.5982 30.336Z" fill="#3D4A39"/>
</svg>
