<svg width="60" height="60" viewBox="0 0 60 60" fill="none" xmlns="http://www.w3.org/2000/svg">
<circle opacity="0.3" cx="30" cy="30" r="29.5" stroke="#282B22"/>
<path d="M28.512 28.968C28.512 30.376 28.24 31.632 27.696 32.736C27.168 33.824 26.44 34.68 25.512 35.304C24.584 35.928 23.536 36.24 22.368 36.24C21.184 36.24 20.128 35.928 19.2 35.304C18.288 34.68 17.56 33.824 17.016 32.736C16.488 31.632 16.224 30.376 16.224 28.968C16.224 27.56 16.488 26.312 17.016 25.224C17.56 24.12 18.288 23.256 19.2 22.632C20.128 21.992 21.184 21.672 22.368 21.672C23.536 21.672 24.584 21.992 25.512 22.632C26.44 23.256 27.168 24.12 27.696 25.224C28.24 26.312 28.512 27.56 28.512 28.968ZM25.824 28.968C25.824 28.008 25.672 27.168 25.368 26.448C25.08 25.712 24.672 25.144 24.144 24.744C23.632 24.328 23.04 24.12 22.368 24.12C21.68 24.12 21.072 24.328 20.544 24.744C20.016 25.144 19.6 25.712 19.296 26.448C19.008 27.168 18.864 28.008 18.864 28.968C18.864 30.408 19.184 31.576 19.824 32.472C20.48 33.352 21.328 33.792 22.368 33.792C23.04 33.792 23.632 33.592 24.144 33.192C24.672 32.792 25.08 32.232 25.368 31.512C25.672 30.776 25.824 29.928 25.824 28.968ZM37.6382 39.048V35.232H30.2702V32.88L38.4782 22.296H40.2782V32.832H42.3902V35.232H40.2782V39.048H37.6382ZM32.9582 32.832H37.9262V26.328L32.9582 32.832Z" fill="#3D4A39"/>
</svg>
