<svg width="93" height="96" fill="none" xmlns="http://www.w3.org/2000/svg"><g clip-path="url(#a)" filter="url(#b)"><path d="M72.725-121.892a1.03 1.03 0 0 1-1.031-1.031v-4.999H24.303v4.999a1.03 1.03 0 1 1-2.063 0v-17.919c0-3.032 2.466-5.5 5.496-5.5h40.52c3.032 0 5.5 2.468 5.5 5.5v17.919a1.03 1.03 0 0 1-1.03 1.031Zm-48.422-8.092h47.39v-10.858a3.441 3.441 0 0 0-3.437-3.438h-40.52a3.439 3.439 0 0 0-3.432 3.438v10.858h-.001Zm52.57-16.561H19.127a1.031 1.031 0 1 1 0-2.063h57.748a1.03 1.03 0 1 1 0 2.063Zm-434.701 117.33a1.032 1.032 0 0 1-1.031-1.031v-9.552h-11.794v9.552a1.032 1.032 0 0 1-2.063 0V-45.35h-1.914a1.032 1.032 0 0 1 0-2.062h15.879l1.47-13.227v-6.365a1.032 1.032 0 0 1 2.062 0v6.407l-.001.075a.805.805 0 0 1-.006.069l-1.57 14.129v16.078a1.032 1.032 0 0 1-1.032 1.031Zm-12.825-12.645h11.794v-3.49h-11.794v3.49Zm-14.473 12.645a.9.9 0 0 1-.092-.004h-6.834a1.032 1.032 0 0 1 0-2.062h5.895v-23.543h-16.736a1.032 1.032 0 1 1 0-2.062h35.54a1.032 1.032 0 0 1 0 2.062h-16.742v23.543h5.898a1.032 1.032 0 0 1 0 2.062h-6.837a.9.9 0 0 1-.092.004Zm-13.441 0c-.57 0-1.032-.462-1.032-1.031v-9.552h-11.792v9.552a1.032 1.032 0 0 1-2.062 0v-16.078l-1.57-14.13a.867.867 0 0 1-.006-.073c-.002-.022-.002-.046-.002-.07v-6.407a1.032 1.032 0 0 1 2.062 0v6.365l1.47 13.227h15.877a1.032 1.032 0 0 1 0 2.062h-1.914v15.104a1.03 1.03 0 0 1-1.031 1.031Zm-12.824-12.645h11.792v-3.49h-11.792v3.49Zm137.619 7.882a1.032 1.032 0 0 1-1.031-1.031v-2.838h-23.698a1.03 1.03 0 0 1-1.031-1.032V-58.63h-22.666v23.62a1.032 1.032 0 0 1-2.063 0v-23.62h-3.114a1.032 1.032 0 0 1-1.031-1.031v-2.58c0-.569.462-1.03 1.031-1.03h57.75c.569 0 1.031.461 1.031 1.03v2.58c0 .569-.462 1.03-1.031 1.03h-3.115v23.622c0 .569-.461 1.03-1.032 1.03Zm-23.698-5.932h22.667v-8.327h-22.667v8.327Zm0-10.39h22.667v-8.33h-22.667v8.33Zm23.698-10.393h3.116v-.516h-55.688v.516h52.572Zm-11.013 17.651h-2.694a1.03 1.03 0 1 1 0-2.062h2.694a1.03 1.03 0 1 1 0 2.062Zm0-10.394h-2.694a1.03 1.03 0 1 1 0-2.062h2.694a1.03 1.03 0 1 1 0 2.062Zm97.638 19.458a1.032 1.032 0 0 1-1.031-1.031v-13.228h-47.395v13.228a1.032 1.032 0 0 1-2.063 0V-58.63h-3.114a1.032 1.032 0 0 1-1.031-1.031v-2.58c0-.569.462-1.03 1.031-1.03H-183c.569 0 1.031.461 1.031 1.03v2.58c0 .569-.462 1.03-1.031 1.03h-3.115v23.622c0 .569-.461 1.03-1.032 1.03ZM-210.845-50.3h22.667v-8.33h-22.667v8.33Zm-24.727 0h22.666v-8.33h-22.666v8.33Zm48.425-10.393h3.116v-.516h-55.688v.516h52.572Zm-11.013 7.257h-2.694a1.032 1.032 0 0 1 0-2.062h2.694a1.032 1.032 0 0 1 0 2.062Zm-24.732-.159h-2.696a1.032 1.032 0 0 1 0-2.062h2.696a1.032 1.032 0 0 1 0 2.062Zm109.532 34.876a1.03 1.03 0 0 1-1.031-1.031v-3.115h-21.721v3.115a1.03 1.03 0 1 1-2.063 0v-19.471h-3.761a1.03 1.03 0 0 1-1.031-1.031c.05-1.983 1.618-3.512 3.574-3.512h1.479l.008-22.573c.272-6.855 5.83-12.194 12.654-12.194a12.621 12.621 0 0 1 12.654 12.154l.013 22.613h1.48c1.924 0 3.528 1.563 3.574 3.482V-40.252a1.03 1.03 0 0 1-1.031 1.031h-3.764v19.471a1.034 1.034 0 0 1-1.034 1.031Zm-22.752-6.209h21.721v-6.116h-21.721v6.116Zm0-8.178h21.721v-6.115h-21.721v6.115Zm22.752-8.177h3.293a1.51 1.51 0 0 0-1.04-.418h-28.288c-.4 0-.767.16-1.04.418h27.075Zm-22.492-2.48h21.204l-.011-22.573c-.224-5.664-4.877-10.133-10.592-10.133a10.57 10.57 0 0 0-10.593 10.173l-.008 22.532Zm11.897 16.812h-2.589a1.031 1.031 0 1 1 0-2.063h2.589a1.03 1.03 0 1 1 0 2.063Zm0-8.183h-2.589a1.031 1.031 0 1 1 0-2.063h2.589a1.03 1.03 0 1 1 0 2.063Zm-7.142-18.103a1.029 1.029 0 0 1-.729-1.76l11.695-11.695a1.03 1.03 0 1 1 1.458 1.458l-11.695 11.695a1.024 1.024 0 0 1-.729.302Zm5.094-.722a1.032 1.032 0 0 1-.729-1.761l5.879-5.876a1.032 1.032 0 0 1 1.458 1.46l-5.879 5.875a1.031 1.031 0 0 1-.729.302Zm-4.372-4.374a1.029 1.029 0 0 1-.729-1.76l5.874-5.877a1.03 1.03 0 1 1 1.458 1.459l-5.874 5.876a1.028 1.028 0 0 1-.729.302Zm77.567 39.614a1.033 1.033 0 0 1-.946-1.44l.745-1.72h-1.639c-.57 0-1.03-.461-1.03-1.03v-22.043c0-.6.54-1.073 1.122-1.027h8.646v-12.12h-8.738a1.032 1.032 0 0 1-1.018-1.193l2.906-18.37a1.03 1.03 0 0 1 1.018-.87h13.715c.508 0 .938.369 1.018.87l2.912 18.37a1.033 1.033 0 0 1-1.019 1.194h-2.301v4.904a1.031 1.031 0 1 1-2.063 0v-4.904h-4.368v12.12h21.154c.583-.046 1.123.426 1.123 1.027v22.042c0 .57-.461 1.031-1.031 1.031H-24.2l.746 1.719a1.03 1.03 0 1 1-1.892.82l-1.102-2.54h-24.314l-1.098 2.538c-.17.39-.55.622-.949.622Zm27.06-5.222h2.114v-8.956h-29.982v8.956h2.154a.375.375 0 0 1 .047 0h25.62a.36.36 0 0 1 .047 0ZM-53.616-34.96h29.982v-8.957h-29.982v8.957Zm15.168-25.203h2.127l-2.586-16.306H-50.86l-2.58 16.307h14.992Zm1.567 32.78h-3.493a1.031 1.031 0 1 1 0-2.063h3.493a1.03 1.03 0 1 1 0 2.063Zm0-11.028h-3.493a1.031 1.031 0 1 1 0-2.063h3.493a1.03 1.03 0 1 1 0 2.063ZM75.256-36.24c-.4 0-.779-.233-.947-.621l-.965-2.225H22.695l-.961 2.224a1.032 1.032 0 0 1-1.892-.818l.607-1.405h-1.323c-.57 0-1.031-.462-1.031-1.031v-19.86c0-.592.53-1.064 1.096-1.03h28.743c.022-.001.046-.007.066-.001.026-.006.044 0 .066.002h28.743c.56-.035 1.096.437 1.096 1.029v19.86c0 .57-.46 1.031-1.031 1.031h-1.282l.609 1.404a1.03 1.03 0 0 1-.945 1.441Zm-1.213-4.907h1.8v-7.869h-26.81v7.869h24.965a.344.344 0 0 1 .045 0Zm-52.003 0h24.927v-7.869h-26.81v7.869h1.838a.343.343 0 0 1 .045 0Zm26.993-9.931h26.81v-7.865h-26.81v7.865Zm-28.876 0h26.81v-7.865h-26.81v7.865Zm43.854 7.029h-3.147a1.031 1.031 0 1 1 0-2.063h3.147a1.031 1.031 0 1 1 0 2.063Zm-28.88 0h-3.146a1.031 1.031 0 1 1 0-2.063h3.147a1.031 1.031 0 1 1-.001 2.063Zm28.88-9.931h-3.147a1.031 1.031 0 1 1 0-2.063h3.147a1.031 1.031 0 1 1 0 2.063Zm-28.88 0h-3.146a1.031 1.031 0 1 1 0-2.063h3.147a1.031 1.031 0 1 1-.001 2.063Zm-447.47 104.362a1.03 1.03 0 0 1-.945-1.44l.607-1.404H-414a1.03 1.03 0 0 1-1.031-1.031V26.648c0-.57.462-1.031 1.031-1.031h57.75c.569 0 1.031.46 1.031 1.031v19.858a1.03 1.03 0 0 1-1.031 1.031h-1.282l.609 1.403a1.031 1.031 0 0 1-1.893.82l-.965-2.224h-50.648l-.963 2.223a1.03 1.03 0 0 1-.947.623Zm53.258-4.907h1.8V27.678h-26.81v17.796H-359.081Zm-52.002 0h24.926v-7.867h-26.812v7.867H-411.083Zm-1.886-9.93h26.812V27.68h-26.812v7.867Zm14.979 7.029h-3.147a1.03 1.03 0 1 1 0-2.063h3.147a1.03 1.03 0 1 1 0 2.063Zm16.078-3.395a1.03 1.03 0 0 1-1.031-1.032V35a1.03 1.03 0 1 1 2.063 0v3.148c0 .57-.462 1.032-1.032 1.032Zm-16.078-6.54h-3.147a1.03 1.03 0 1 1 0-2.062h3.147a1.03 1.03 0 1 1 0 2.063Zm125.512 21.982c-.57 0-1.032-.461-1.032-1.032v-.36H-323.449v.36a1.03 1.03 0 1 1-2.063 0v-.36h-1.77c-.591.065-1.123-.426-1.123-1.028v-29.79c0-.57.462-1.032 1.031-1.032h57.75a1.03 1.03 0 0 1 1.027 1.123v9.747c.002.03.004.06.004.091v19.858a1.03 1.03 0 0 1-1.031 1.032h-1.822v.36a1.032 1.032 0 0 1-1.032 1.03Zm-24.988-3.454h26.81V43.3h-26.81v7.867Zm-28.878 0h26.812V43.3h-26.812v7.867Zm28.878-9.93h26.81v-8.805a1.379 1.379 0 0 1-.004-.092v-8.898h-26.806v17.795Zm-28.878 0h26.816V23.442h-26.816v17.795Zm43.857 7.031h-3.147a1.03 1.03 0 1 1 0-2.062h3.147a1.03 1.03 0 1 1 0 2.062Zm-28.878 0h-3.147a1.03 1.03 0 1 1 0-2.062h3.147a1.03 1.03 0 1 1 0 2.062Zm38.685-13.328a1.03 1.03 0 0 1-1.031-1.03v-3.145a1.03 1.03 0 1 1 2.063 0v3.144c0 .57-.462 1.031-1.032 1.031Zm-51.659 0a1.03 1.03 0 0 1-1.031-1.03v-3.145a1.03 1.03 0 1 1 2.062 0v3.144a1.03 1.03 0 0 1-1.031 1.031Zm138.485 24.998a1.03 1.03 0 0 1-1.031-1.032v-.365H-236.824v.366a1.03 1.03 0 1 1-2.063 0v-.366h-1.77c-.588.067-1.123-.426-1.123-1.028V47.58c0-.57.462-1.03 1.031-1.03h4.215v-2.646h-4.216a1.03 1.03 0 1 1 0-2.063h24.688l.695-2.256h-15.022a1.03 1.03 0 0 1-1.031-1.031v-21.46c0-.57.462-1.032 1.031-1.032h37.028a1.03 1.03 0 0 1 1.031 1.031v21.462a1.03 1.03 0 0 1-1.031 1.031h-15.024l.695 2.257H-183a1.03 1.03 0 1 1 0 2.062h-4.214v2.645H-183a1.03 1.03 0 0 1 1.031 1.031v9.93A1.03 1.03 0 0 1-183 58.54h-1.822v.367c0 .569-.462 1.03-1.032 1.03Zm-24.991-3.46h26.814v-7.866h-26.814v7.866Zm-28.874 0h26.812v-7.866h-26.812v7.866Zm5.246-9.929h45.197v-2.645h-19.152a.334.334 0 0 1-.047 0h-6.8a.335.335 0 0 1-.047 0h-19.15v2.645h-.001Zm20.57-4.708h4.054l-.695-2.256h-2.664l-.695 2.256Zm4.145-4.318h15.366V18.125h-34.966v19.399h15.364a.368.368 0 0 0 .047 0h4.142l.047-.001Zm13.896 16.057h-3.147a1.03 1.03 0 1 1 0-2.062h3.147a1.03 1.03 0 1 1 0 2.062Zm-28.878 0h-3.147a1.03 1.03 0 1 1 0-2.062h3.147a1.03 1.03 0 1 1 0 2.062Zm109.116-1.832a1.03 1.03 0 0 1-1.032-1.032V48.61h-17.194v2.107a1.03 1.03 0 1 1-2.062 0V48.61h-17.181v2.083a1.03 1.03 0 1 1-2.062 0V25.284c0-.57.461-1.032 1.031-1.032h57.748c.57 0 1.031.461 1.031 1.032v25.404a1.03 1.03 0 1 1-2.062 0v-2.079h-17.186v2.107a1.03 1.03 0 0 1-1.031 1.032Zm1.031-5.201h17.186V32.572h-17.186v13.975Zm-19.257 0h17.194V29.479h-17.194v17.068Zm-19.243 0h17.181V32.572h-17.181v13.975Zm38.5-16.038h17.186v-4.194h-17.186v4.194Zm-38.5 0h17.181v-4.194h-17.181v4.194Zm19.243-3.093h17.194v-1.101h-17.194v1.101Zm20.534 14.19a1.03 1.03 0 0 1-1.032-1.03v-2.032a1.03 1.03 0 1 1 2.063 0v2.031a1.03 1.03 0 0 1-1.031 1.031Zm-23.872 0a1.03 1.03 0 0 1-1.031-1.03v-2.032a1.03 1.03 0 1 1 2.062 0v2.031c0 .57-.46 1.031-1.031 1.031Zm32.239-12.392h-2.097a1.03 1.03 0 1 1 0-2.063h2.097a1.03 1.03 0 1 1 0 2.063Zm-38.504 0h-2.093a1.03 1.03 0 1 1 0-2.063h2.093a1.03 1.03 0 1 1 0 2.063Zm118.819 38.691h-27.987a1.03 1.03 0 0 1-1.031-1.031V9.126c0-.57.46-1.031 1.03-1.031h27.992a1.03 1.03 0 0 1 1.027 1.123v19.07a.897.897 0 0 1 0 .183v19.066a.897.897 0 0 1 0 .184v19.153a1.03 1.03 0 0 1-1.031 1.031Zm-26.955-2.062h25.925V48.66H-51.59v17.183Zm0-19.25h25.925V29.411H-51.59v17.182Zm0-19.253h25.925V10.157H-51.59V27.34Zm1.91 32.47a1.03 1.03 0 0 1-1.031-1.031v-3.05a1.03 1.03 0 1 1 2.062 0v3.05c0 .57-.46 1.03-1.031 1.03Zm0-19.254a1.03 1.03 0 0 1-1.031-1.03v-3.047a1.03 1.03 0 1 1 2.062 0v3.046c0 .57-.46 1.032-1.031 1.032Zm0-19.252a1.03 1.03 0 0 1-1.031-1.031v-3.046a1.03 1.03 0 1 1 2.062 0v3.046c0 .57-.46 1.031-1.031 1.031ZM75.989 67.905H20.011a1.03 1.03 0 0 1-1.031-1.031V9.126c0-.57.46-1.031 1.03-1.031h55.978c.57 0 1.031.46 1.031 1.031V66.874a1.03 1.03 0 0 1-1.03 1.031Zm-26.956-2.062h25.925V10.157H49.033V65.843Zm-27.99 0h25.924V48.656H21.042v17.187Zm0-19.25h25.924V10.157H21.042v36.436ZM44.74 59.81a1.03 1.03 0 0 1-1.031-1.031v-3.05a1.03 1.03 0 1 1 2.062 0v3.05c0 .57-.46 1.03-1.03 1.03Zm6.518-19.254a1.03 1.03 0 0 1-1.032-1.03v-3.047a1.03 1.03 0 1 1 2.063 0v3.046c0 .57-.461 1.032-1.031 1.032Zm-6.518 0a1.03 1.03 0 0 1-1.031-1.03v-3.047a1.03 1.03 0 1 1 2.062 0v3.046c0 .57-.46 1.032-1.03 1.032ZM-357.135 154.53H-413.115a1.03 1.03 0 0 1-1.031-1.031V95.751c0-.57.462-1.031 1.031-1.031h55.979a1.03 1.03 0 0 1 1.031 1.031V153.5a1.03 1.03 0 0 1-1.03 1.031Zm-26.956-2.062h25.925V96.782h-25.925V152.468Zm-27.993 0h25.927V96.782h-25.927v55.686Zm40.953-7.636c-4.833 0-8.766-3.932-8.766-8.764v-22.884c0-4.833 3.933-8.765 8.766-8.765 4.835 0 8.77 3.932 8.77 8.765l-.004 22.884c0 4.832-3.932 8.764-8.766 8.764Zm0-38.352a6.71 6.71 0 0 0-6.703 6.703v22.884a6.71 6.71 0 0 0 6.703 6.702 6.71 6.71 0 0 0 6.703-6.702l.004-22.884c0-3.696-3.009-6.703-6.707-6.703Zm-10.734 20.701a1.03 1.03 0 0 1-1.031-1.031v-3.046a1.03 1.03 0 1 1 2.062 0v3.046a1.03 1.03 0 0 1-1.031 1.031Zm-6.518 0a1.03 1.03 0 0 1-1.031-1.031v-3.046a1.03 1.03 0 1 1 2.063 0v3.046a1.03 1.03 0 0 1-1.032 1.031Zm206.41-17.674a1.03 1.03 0 1 0-2.062 0v11.285h-.071c-.098-2.266-1.957-4.081-4.247-4.081h-4.725c-2.289 0-4.147 1.815-4.244 4.081h-37.989a6.45 6.45 0 0 0-4.405 1.734v-4.854a1.03 1.03 0 1 0-2.062 0l-.003 20.569c0 .551.432 1.001.975 1.031v.471a1.03 1.03 0 1 0 2.063 0v-.471h53.733v.471a1.03 1.03 0 1 0 2.063 0v-.471c.544-.028.977-.48.977-1.031l-.003-28.734Zm-11.105 9.267h4.725c1.15 0 2.096.884 2.194 2.005h-9.11a2.202 2.202 0 0 1 2.191-2.005Zm-42.234 4.08h51.277v3.374h-55.562a4.414 4.414 0 0 1 4.285-3.374Zm-4.407 14.355v-8.918h55.686l.002 8.918h-55.688Zm144.37-6.265c0-.571-.462-1.032-1.031-1.032h-22.684v-9.529a1.03 1.03 0 0 0-1.031-1.031h-10.313a1.03 1.03 0 0 0-1.032 1.031v9.529h-4.724c.581-1.827-1.176-9.551-.63-11.016a1.03 1.03 0 0 0-.965-1.392h-1.39v-3.521h5.501a1.03 1.03 0 0 0 1.02-1.183l-1.947-13.163a1.03 1.03 0 0 0-1.02-.88h-9.172a1.03 1.03 0 0 0-1.02.88l-1.943 13.163a1.03 1.03 0 0 0 1.02 1.183h5.497v3.521h-1.39c-.338 0-.655.165-.847.444a1.027 1.027 0 0 0-.118.948c.546 1.466-1.208 9.189-.628 11.016h-9.928a1.03 1.03 0 0 0-1.031 1.032v17.014c0 .55.431 1 .973 1.029v.474a1.03 1.03 0 1 0 2.063 0v-.472h53.733v.472a1.03 1.03 0 1 0 2.063 0v-.473a1.03 1.03 0 0 0 .978-1.03l-.004-17.014Zm-34.028-9.529h8.251v8.497h-8.251v-8.497Zm-16.138-9.494 1.639-11.1h7.392l1.641 11.1h-10.672Zm4.216 7.647h2.238c-.202 1.636 1.476 9.003.649 10.344h-3.535c-.826-1.34.85-8.707.648-10.344Zm15.012 27.359h-26.806v-14.952h26.806v14.952Zm2.062 0v-14.952h26.814l.004 14.952h-26.818Z" fill="#fff"/></g><defs><clipPath id="a"><path fill="#fff" transform="translate(15 5)" d="M0 0h66v66H0z"/></clipPath><filter id="b" x="0" y="0" width="96" height="96" filterUnits="userSpaceOnUse" color-interpolation-filters="sRGB"><feFlood flood-opacity="0" result="BackgroundImageFix"/><feColorMatrix in="SourceAlpha" values="0 0 0 0 0 0 0 0 0 0 0 0 0 0 0 0 0 0 127 0" result="hardAlpha"/><feOffset dy="10"/><feGaussianBlur stdDeviation="7.5"/><feComposite in2="hardAlpha" operator="out"/><feColorMatrix values="0 0 0 0 0 0 0 0 0 0 0 0 0 0 0 0 0 0 0.25 0"/><feBlend in2="BackgroundImageFix" result="effect1_dropShadow_221_14"/><feBlend in="SourceGraphic" in2="effect1_dropShadow_221_14" result="shape"/></filter></defs></svg>