<svg width="77" height="99" fill="none" xmlns="http://www.w3.org/2000/svg"><g clip-path="url(#a)" filter="url(#b)"><path d="M59.816 51.416c.275-.008.536-.126.724-.328.19-.203.29-.473.283-.75-.391-13.616-9.128-22.29-22.362-22.351l-.63-21.947a1.055 1.055 0 0 0-.325-.733 1.031 1.031 0 0 0-1.466.042c-.19.203-.29.472-.283.75l.63 21.947c-13.215.82-21.439 9.983-21.048 23.598.008.278.125.542.325.733.2.19.467.294.742.286l13.512-.388a8.65 8.65 0 0 0 2.93 5.081 8.473 8.473 0 0 0 5.47 2.001 8.473 8.473 0 0 0 5.35-2.31 8.65 8.65 0 0 0 2.637-5.243l13.511-.388ZM37.477 30.093c9.759-.28 20.325 4.662 21.222 19.256l-41.316 1.187c.07-14.622 10.335-20.163 20.094-20.444Zm.78 27.167a6.43 6.43 0 0 1-3.98-1.434 6.56 6.56 0 0 1-2.258-3.612l12.184-.35a6.56 6.56 0 0 1-2.05 3.738 6.43 6.43 0 0 1-3.895 1.658ZM61.31 64.14l-6.577-4.778a1.03 1.03 0 0 0-1.449.241 1.059 1.059 0 0 0 .24 1.466l6.576 4.778a1.03 1.03 0 0 0 1.45-.242 1.054 1.054 0 0 0 .037-1.166 1.045 1.045 0 0 0-.277-.3ZM23.615 60.17l-6.106 5.366a1.044 1.044 0 0 0-.461.738 1.061 1.061 0 0 0 .25.835 1.04 1.04 0 0 0 .79.355 1.028 1.028 0 0 0 .78-.372l6.113-5.36a1.044 1.044 0 0 0 .376-.722 1.06 1.06 0 0 0-.577-1.03 1.03 1.03 0 0 0-1.159.17l-.006.02Zm15.157 4.399a1.031 1.031 0 0 0-.724.328c-.189.202-.29.472-.282.75l.21 7.318c.008.278.125.541.325.732a1.03 1.03 0 0 0 1.466-.042c.188-.202.29-.472.282-.75l-.21-7.318a1.055 1.055 0 0 0-.325-.732 1.031 1.031 0 0 0-.742-.286Z" fill="#fff"/></g><defs><clipPath id="a"><path fill="#fff" transform="rotate(-1.646 204.58 -485.238)" d="M0 0h46.001v69H0z"/></clipPath><filter id="b" x="-.981" y="-.646" width="77.964" height="100.293" filterUnits="userSpaceOnUse" color-interpolation-filters="sRGB"><feFlood flood-opacity="0" result="BackgroundImageFix"/><feColorMatrix in="SourceAlpha" values="0 0 0 0 0 0 0 0 0 0 0 0 0 0 0 0 0 0 127 0" result="hardAlpha"/><feOffset dy="10"/><feGaussianBlur stdDeviation="7.5"/><feComposite in2="hardAlpha" operator="out"/><feColorMatrix values="0 0 0 0 0 0 0 0 0 0 0 0 0 0 0 0 0 0 0.25 0"/><feBlend in2="BackgroundImageFix" result="effect1_dropShadow_221_52"/><feBlend in="SourceGraphic" in2="effect1_dropShadow_221_52" result="shape"/></filter></defs></svg>