<svg width="122" height="53" fill="none" xmlns="http://www.w3.org/2000/svg"><g clip-path="url(#a)"><path d="M106.683 1.957c4.108 0 7.629 1.468 10.569 4.391 2.941 2.93 4.407 6.444 4.407 10.556 0 4.117-1.466 7.626-4.407 10.53-.399.394-.808.76-1.228 1.1-6.919-3.575-14.228-5.284-14.379-11.625 1.273 2.546 2.007 3.948 4.747 5.318.218-.327.451-.72.684-1.03 1.176-1.56 1.423-.959 4.061-1.538 2.217-.485 2.721-1.468 2.879-3.942-2.015-1.722-1.435-.533-2.677-3.337-.763-1.722-1.406-1.863-3.431-2.295l.207-3.404c-4.548 1.073-7.721 4.896-9.315 9.128-1.99 5.284-1.381 8.85-.384 13.522a15.865 15.865 0 0 1-2.31-1.896c-2.921-2.917-4.388-6.425-4.388-10.53 0-4.1 1.467-7.614 4.389-10.556 2.94-2.924 6.461-4.391 10.575-4.391l.001-.001Z" fill="#3D4A39"/><path d="m109.978 9.223.26-.624c1.097.455 2.101 1.135 3.009 2.04v.001c.918.913 1.606 1.916 2.065 3.01.46 1.097.689 2.282.689 3.554 0 1.284-.23 2.474-.691 3.57-.459 1.095-1.147 2.092-2.065 2.99-.914.901-1.919 1.576-3.012 2.026-1.098.453-2.282.678-3.55.678-1.288 0-2.483-.224-3.585-.676-1.1-.45-2.101-1.127-3.004-2.03l-.001.002c-.908-.905-1.592-1.906-2.048-3.003-.457-1.095-.686-2.281-.686-3.557 0-1.265.229-2.446.685-3.542.456-1.095 1.139-2.102 2.047-3.02.898-.907 1.896-1.588 2.996-2.043l.26.624c-1.016.42-1.941 1.052-2.773 1.892-.846.855-1.48 1.79-1.904 2.806-.42 1.011-.632 2.106-.632 3.283 0 1.188.211 2.287.633 3.298.422 1.011 1.057 1.94 1.902 2.783v.001c.839.839 1.767 1.466 2.782 1.883 1.015.416 2.124.623 3.327.623 1.182 0 2.28-.207 3.293-.625 1.01-.417 1.942-1.044 2.792-1.882h.001c.853-.835 1.49-1.758 1.915-2.768.424-1.012.636-2.116.636-3.312 0-1.184-.211-2.282-.635-3.295-.425-1.013-1.063-1.944-1.918-2.792h-.001c-.846-.843-1.776-1.476-2.788-1.895h.001Zm-3.295-7.266c2.098 0 4.048.376 5.853 1.126 1.802.75 3.454 1.872 4.956 3.365 1.501 1.495 2.628 3.143 3.38 4.944.752 1.801 1.128 3.75 1.128 5.85 0 2.102-.377 4.052-1.128 5.85-.751 1.796-1.878 3.436-3.38 4.92-1.496 1.477-3.145 2.586-4.948 3.325-1.805.74-3.758 1.11-5.861 1.11-2.112-.007-4.071-.38-5.875-1.12-1.804-.74-3.451-1.844-4.94-3.314v-.001c-1.493-1.49-2.614-3.133-3.363-4.928-.75-1.797-1.126-3.744-1.126-5.84 0-2.094.377-4.04 1.126-5.842.749-1.798 1.87-3.448 3.363-4.952 1.503-1.493 3.154-2.616 4.958-3.365 1.804-.75 3.756-1.126 5.858-1.126l-.001-.002Zm5.592 1.75c-1.719-.715-3.582-1.074-5.592-1.074-2.013 0-3.878.358-5.598 1.073-1.72.716-3.3 1.79-4.738 3.22-1.428 1.438-2.502 3.016-3.216 4.734-.715 1.716-1.072 3.577-1.072 5.582 0 2.009.358 3.869 1.072 5.58.714 1.714 1.787 3.285 3.216 4.712 1.426 1.407 2.998 2.463 4.718 3.168 1.723.707 3.596 1.063 5.618 1.068v-.002c2.017 0 3.885-.352 5.603-1.056 1.72-.705 3.295-1.764 4.727-3.18 1.438-1.42 2.515-2.987 3.233-4.7.716-1.713 1.074-3.576 1.074-5.591 0-2.011-.358-3.875-1.074-5.592-.717-1.716-1.795-3.291-3.234-4.725h.001c-1.438-1.43-3.017-2.504-4.738-3.22v.002Z" fill="#3D4A39"/><path d="m103.317 9.15.031.073a10.21 10.21 0 0 0-.23.1c-1.942 1.72-3.396 4.034-4.318 6.485a22.514 22.514 0 0 0-.723 2.256 8.22 8.22 0 0 0 .594 2.438c.422 1.011 1.057 1.94 1.902 2.783v.001c.839.839 1.767 1.466 2.782 1.883 1.015.416 2.124.623 3.327.623.947 0 1.839-.133 2.678-.4-4.279-2.05-7.614-4.22-7.716-8.484 1.273 2.546 2.007 3.948 4.747 5.318.218-.327.451-.72.684-1.028 1.176-1.562 1.423-.96 4.061-1.539 2.217-.485 2.721-1.468 2.879-3.942-2.015-1.722-1.435-.533-2.677-3.337-.763-1.722-1.405-1.863-3.431-2.295l.207-3.404c-1.825.431-3.428 1.305-4.797 2.47v-.002Z" fill="#DDD5C1"/><path d="M110.22 25.797c-1.095.448-2.274.672-3.537.672-1.288 0-2.483-.225-3.585-.676-1.1-.45-2.101-1.127-3.004-2.03l-.001.002c-.908-.906-1.592-1.906-2.048-3.003a8.637 8.637 0 0 1-.337-.963c-.533 3.29-.026 6.087.69 9.45a13.923 13.923 0 0 0 2.666 1.455c1.723.707 3.596 1.063 5.618 1.068v-.001c2.017 0 3.885-.352 5.603-1.056a14.136 14.136 0 0 0 3.665-2.217c-1.937-.997-3.903-1.85-5.731-2.7l.001-.001Z" fill="#AE7B3C"/><path d="M75.35 2.012c4.094 0 7.622 1.45 10.587 4.354l-4.226 4.21c-1.792-1.76-3.902-2.643-6.324-2.643-2.479 0-4.59.884-6.33 2.644-1.755 1.748-2.635 3.857-2.635 6.326 0 2.463.88 4.572 2.635 6.32 1.728 1.747 3.839 2.625 6.33 2.625 1.83 0 3.49-.51 4.988-1.53a8.779 8.779 0 0 0 3.097-3.609h-8.416V15.08h15.146c.387 5.013-1.042 9.132-4.302 12.353-2.94 2.905-6.461 4.354-10.569 4.354-4.145 0-7.666-1.449-10.556-4.354-2.922-2.892-4.389-6.4-4.389-10.53 0-4.1 1.467-7.614 4.389-10.556 2.903-2.923 6.423-4.391 10.556-4.391l.019.056Z" fill="#3D4A39"/><path d="M75.593 1.676c1.998.028 3.867.398 5.603 1.113 1.806.742 3.465 1.855 4.979 3.337l.244.24-4.706 4.688-.24-.236c-.864-.848-1.804-1.486-2.82-1.91a8.381 8.381 0 0 0-3.266-.636c-1.194 0-2.297.212-3.31.635-1.014.424-1.94 1.06-2.779 1.907v.003c-.847.843-1.482 1.771-1.904 2.784-.421 1.011-.632 2.112-.632 3.302 0 1.188.211 2.287.633 3.297.422 1.012 1.056 1.94 1.902 2.783l.001.002c.832.842 1.756 1.474 2.77 1.894 1.01.42 2.118.63 3.319.63.882 0 1.722-.123 2.519-.367a8.426 8.426 0 0 0 2.278-1.104 8.698 8.698 0 0 0 1.738-1.539 8.368 8.368 0 0 0 .999-1.45h-8.205v-6.307h15.8l.024.313c.197 2.55-.07 4.879-.802 6.983-.735 2.11-1.933 3.988-3.599 5.635-1.502 1.484-3.154 2.596-4.957 3.339-1.804.743-3.754 1.114-5.85 1.114-2.117 0-4.078-.371-5.88-1.115-1.802-.743-3.441-1.856-4.917-3.339-1.493-1.478-2.614-3.114-3.364-4.91-.75-1.797-1.125-3.75-1.125-5.86 0-2.093.376-4.039 1.125-5.84.75-1.799 1.87-3.449 3.363-4.952 1.484-1.495 3.127-2.618 4.93-3.368 1.802-.75 3.758-1.125 5.867-1.125h.243l.02.058v.001Zm5.346 1.736c-1.722-.707-3.584-1.062-5.589-1.062h-.243l-.018-.054c-1.928.028-3.716.384-5.365 1.07-1.719.716-3.289 1.79-4.71 3.22-1.429 1.438-2.501 3.016-3.217 4.735-.714 1.716-1.072 3.577-1.072 5.582 0 2.021.358 3.888 1.072 5.6.715 1.713 1.787 3.277 3.216 4.692 1.413 1.42 2.979 2.484 4.694 3.192 1.718.708 3.593 1.062 5.623 1.062 2.011 0 3.875-.353 5.594-1.062 1.72-.708 3.298-1.772 4.737-3.193 1.593-1.575 2.738-3.367 3.438-5.376.67-1.927.932-4.061.786-6.4h-14.49v4.952h8.61l-.226.482a9.092 9.092 0 0 1-1.343 2.085 9.39 9.39 0 0 1-1.87 1.658v.001a9.112 9.112 0 0 1-2.462 1.192 9.205 9.205 0 0 1-2.717.398c-1.29 0-2.482-.228-3.58-.683-1.096-.454-2.093-1.136-2.99-2.042l-.001.001c-.909-.905-1.592-1.906-2.049-3.002-.456-1.096-.685-2.282-.685-3.557 0-1.278.229-2.465.686-3.562.456-1.097 1.14-2.098 2.048-3.003v.001c.904-.912 1.903-1.598 2.998-2.055 1.097-.46 2.288-.688 3.573-.688 1.256 0 2.433.23 3.528.688a9.48 9.48 0 0 1 2.79 1.822l3.748-3.735c-1.384-1.304-2.889-2.29-4.515-2.959ZM51.883 18.434V2.124h5.942v30.05l-17.78-16.876v16.31H34.12V1.577l17.763 16.857Z" fill="#3D4A39"/><path d="M51.203 16.856V1.447h7.301v32.304l-17.78-16.875v15.41h-7.283V0l17.761 16.856Zm1.359-14.055v17.21L34.801 3.154v27.777h4.565v-17.21l17.78 16.876V2.8h-4.584ZM24.538 2.193h5.924v29.378h-5.924V2.193Z" fill="#3D4A39"/><path d="M24.538 1.854h6.264V31.91h-6.604V1.854h.339Zm5.585.677h-5.245v28.7h5.245v-28.7ZM10.53 16.17c1.073 0 1.99-.405 2.759-1.22.755-.814 1.136-1.785 1.136-2.917 0-1.07-.393-2.009-1.174-2.824-.805-.777-2.023-1.162-3.658-1.162H6.265v8.105H8.55v.018h1.98ZM.34 2.192h9.62c3.122 0 5.695.995 7.717 2.992.993.983 1.692 1.91 2.104 2.787.5 1.07.75 2.363.75 3.881v.765c0 1.978-.619 3.844-1.86 5.598-.893 1.238-2.073 2.14-3.533 2.712l6.86 10.643h-7.241L6.285 18.577v12.994H.342V2.193H.34Z" fill="#3D4A39"/><path d="M10.53 15.831c.49 0 .942-.09 1.356-.274.417-.184.801-.463 1.153-.835.35-.377.611-.788.784-1.232.174-.446.262-.93.262-1.456 0-.491-.09-.95-.268-1.378a3.956 3.956 0 0 0-.808-1.21c-.363-.35-.823-.612-1.379-.788-.573-.183-1.252-.273-2.038-.273H6.604v7.428H8.89v.018h1.64Zm1.63.344a3.984 3.984 0 0 1-1.63.333H8.21v-.02H5.926V7.708h3.667c.85 0 1.597.102 2.242.308.66.21 1.211.526 1.652.952l.009.009c.419.437.735.91.947 1.42.213.512.32 1.057.32 1.637 0 .606-.103 1.173-.309 1.7a4.557 4.557 0 0 1-.917 1.446l-.003.003a4.23 4.23 0 0 1-1.375.993h.001ZM.34 1.855h9.62c1.602-.001 3.066.256 4.393.77a10.354 10.354 0 0 1 3.563 2.32c.506.502.94.991 1.302 1.47.364.483.654.954.87 1.413v.001a7.91 7.91 0 0 1 .587 1.85c.13.67.194 1.395.194 2.173v.765c0 1.025-.16 2.021-.48 2.989-.321.964-.802 1.899-1.442 2.804l-.002.003a7.978 7.978 0 0 1-1.619 1.673 8.28 8.28 0 0 1-1.687.997l6.979 10.826h-8.046L6.623 19.717v12.192H0V1.854h.34Zm9.62.676H.68v28.7h5.264V17.437l8.994 13.796h6.438l-6.748-10.468.385-.151a7.77 7.77 0 0 0 1.9-1.061 7.324 7.324 0 0 0 1.48-1.53 9.982 9.982 0 0 0 1.35-2.627 8.76 8.76 0 0 0 .448-2.777v-.765c0-.74-.06-1.421-.18-2.045a7.228 7.228 0 0 0-.538-1.695h.001a7.35 7.35 0 0 0-.797-1.292c-.34-.45-.752-.915-1.238-1.397a9.682 9.682 0 0 0-3.33-2.17c-1.244-.481-2.627-.723-4.147-.723H9.96Z" fill="#3D4A39"/><path d="M6.34 51.21c.624 0 1.181-.105 1.671-.315.49-.209.908-.502 1.247-.879.34-.376.599-.827.777-1.35a5.32 5.32 0 0 0 .267-1.728v-9.12h2.028v9.12a6.83 6.83 0 0 1-.413 2.408 5.577 5.577 0 0 1-1.188 1.92 5.439 5.439 0 0 1-1.888 1.273c-.742.307-1.576.461-2.5.461-.925 0-1.759-.154-2.501-.46a5.48 5.48 0 0 1-1.892-1.274 5.547 5.547 0 0 1-1.19-1.92 6.827 6.827 0 0 1-.417-2.408v-9.12h2.027v9.11c0 .627.091 1.203.27 1.727.178.523.438.974.777 1.35.34.377.757.67 1.25.883a4.189 4.189 0 0 0 1.675.322ZM23.397 44.392h.768c.266 0 .48-.034.64-.1.161-.067.308-.178.442-.34l5.013-5.654a1.2 1.2 0 0 1 .441-.376c.155-.07.343-.105.568-.105h1.723l-5.738 6.46c-.14.167-.273.303-.403.411-.129.109-.27.2-.416.269.19.063.36.154.515.275.154.123.304.283.451.479l5.99 7.11h-1.765c-.133 0-.245-.011-.34-.029a.845.845 0 0 1-.249-.084.822.822 0 0 1-.182-.136 1.378 1.378 0 0 1-.155-.181l-5.19-5.957c-.14-.175-.292-.301-.452-.374-.161-.074-.407-.109-.735-.109h-.925v6.87H21.37V37.815h2.028v6.576h-.001ZM44.846 45.084c.589 0 1.11-.074 1.562-.217.451-.143.83-.345 1.134-.607.305-.262.533-.572.687-.935.154-.364.232-.765.232-1.204 0-.894-.295-1.567-.883-2.02-.589-.454-1.471-.681-2.648-.681h-2.228v5.665h2.144v-.001Zm6.957 7.738h-1.808c-.372 0-.645-.143-.82-.43l-3.91-5.36a1.167 1.167 0 0 0-.38-.363c-.137-.074-.35-.108-.638-.108h-1.545v6.261h-2.028V37.818h4.256c.953 0 1.777.094 2.47.286.693.192 1.268.471 1.72.835.451.363.784.8 1.001 1.312a4.39 4.39 0 0 1 .326 1.724 4.31 4.31 0 0 1-.252 1.486c-.168.461-.41.873-.729 1.24-.319.366-.707.68-1.166.938a5.817 5.817 0 0 1-1.563.587c.26.147.484.36.672.639l4.394 5.957ZM66.514 47.25l-2.364-6.103a13.543 13.543 0 0 1-.442-1.403 11.478 11.478 0 0 1-.451 1.413l-2.365 6.093h5.622Zm4.246 5.571h-1.576a.683.683 0 0 1-.442-.136.83.83 0 0 1-.252-.345l-1.408-3.623h-6.758l-1.408 3.623a.746.746 0 0 1-.242.335.676.676 0 0 1-.441.147h-1.577l6.022-15.004h2.06l6.021 15.004h.001ZM79.461 52.822h-2.038V37.817h2.038v15.005ZM100.889 37.817v15.004h-1.02a.864.864 0 0 1-.403-.084 1.02 1.02 0 0 1-.322-.283l-8.712-11.308a13.146 13.146 0 0 1 .043.985v10.69h-1.787V37.817h1.052c.09 0 .167.004.231.014a.58.58 0 0 1 .315.158c.05.045.102.104.158.174l8.712 11.298c-.014-.182-.024-.36-.035-.53a7.815 7.815 0 0 1-.018-.485V37.818h1.786v-.001ZM117.41 47.25l-2.365-6.103c-.07-.182-.143-.395-.22-.635-.078-.24-.151-.496-.221-.769a11.351 11.351 0 0 1-.452 1.414l-2.364 6.093h5.622Zm4.246 5.571h-1.577a.681.681 0 0 1-.441-.136.826.826 0 0 1-.252-.345l-1.409-3.623h-6.757l-1.409 3.623a.747.747 0 0 1-.241.335.678.678 0 0 1-.442.147h-1.576l6.021-15.004h2.06l6.022 15.004h.001Z" fill="#AE7B3C"/></g><defs><clipPath id="a"><path fill="#fff" d="M0 0h122v53H0z"/></clipPath></defs></svg>