<svg width="91" height="93" fill="none" xmlns="http://www.w3.org/2000/svg"><g filter="url(#a)" fill="#fff"><path d="M71.674 5H19.326a3.523 3.523 0 0 0-3.519 3.518v52.35a3.52 3.52 0 0 0 3.518 3.515h1.704v2.663c0 .527.428.954.955.954h8.311a.954.954 0 0 0 .955-.954v-2.663h28.498v2.663c0 .527.427.954.955.954h8.31a.954.954 0 0 0 .955-.954v-2.663h1.704a3.52 3.52 0 0 0 3.519-3.516V8.518A3.519 3.519 0 0 0 71.674 5ZM19.326 6.908h52.348c.886 0 1.61.722 1.61 1.61v9.538H17.717V8.518c0-.887.722-1.61 1.61-1.61ZM29.341 66.09H22.94v-1.707h6.402v1.707Zm38.719 0h-6.403v-1.707h6.403v1.707Zm3.614-3.616H19.326a1.61 1.61 0 0 1-1.61-1.608V19.966h55.568v40.901c0 .886-.724 1.608-1.61 1.608Z"/><path d="M60.704 16.322a3.844 3.844 0 0 0 3.839-3.839 3.844 3.844 0 0 0-3.84-3.839 3.844 3.844 0 0 0-3.84 3.84 3.844 3.844 0 0 0 3.84 3.838Zm0-5.77c1.063 0 1.93.867 1.93 1.931s-.867 1.93-1.93 1.93a1.932 1.932 0 0 1-1.93-1.93c0-1.064.865-1.93 1.93-1.93ZM45.5 16.323a3.843 3.843 0 0 0 3.838-3.839A3.843 3.843 0 0 0 45.5 8.644a3.844 3.844 0 0 0-3.84 3.84 3.844 3.844 0 0 0 3.84 3.838Zm0-5.77c1.063 0 1.93.867 1.93 1.931s-.866 1.93-1.93 1.93a1.933 1.933 0 0 1-1.93-1.93c0-1.064.866-1.93 1.93-1.93Zm-15.204 5.77a3.843 3.843 0 0 0 3.838-3.839 3.843 3.843 0 0 0-3.838-3.839 3.844 3.844 0 0 0-3.839 3.84 3.844 3.844 0 0 0 3.84 3.838Zm0-5.77c1.064 0 1.93.867 1.93 1.931s-.866 1.93-1.93 1.93a1.933 1.933 0 0 1-1.93-1.93c0-1.064.866-1.93 1.93-1.93Zm36.057 21.474H24.65a.955.955 0 0 0-.955.955v23.237c0 .528.427.955.955.955h41.703a.955.955 0 0 0 .956-.955V32.981a.956.956 0 0 0-.956-.955Zm-.954 23.238H25.605V33.936h39.794v21.328Z"/></g><defs><filter id="a" x="-1" y="0" width="93" height="93" filterUnits="userSpaceOnUse" color-interpolation-filters="sRGB"><feFlood flood-opacity="0" result="BackgroundImageFix"/><feColorMatrix in="SourceAlpha" values="0 0 0 0 0 0 0 0 0 0 0 0 0 0 0 0 0 0 127 0" result="hardAlpha"/><feOffset dy="10"/><feGaussianBlur stdDeviation="7.5"/><feComposite in2="hardAlpha" operator="out"/><feColorMatrix values="0 0 0 0 0 0 0 0 0 0 0 0 0 0 0 0 0 0 0.25 0"/><feBlend in2="BackgroundImageFix" result="effect1_dropShadow_221_57"/><feBlend in="SourceGraphic" in2="effect1_dropShadow_221_57" result="shape"/></filter></defs></svg>